<svg viewBox="0 0 87 32" xmlns="http://www.w3.org/2000/svg" class="css-1e7ich7"><g clip-path="url(#a)" fill="#BC8D29"><path d="M15.995 23.583a7.586 7.586 0 1 1 0-15.171 7.586 7.586 0 0 1 0 15.171Zm0-16.532a8.961 8.961 0 1 0 8.961 8.956A8.966 8.966 0 0 0 16 7.041l-.005.01ZM16 27.104A11.107 11.107 0 1 1 16 4.89a11.107 11.107 0 0 1-.005 22.213H16ZM15.995 3.52a12.482 12.482 0 1 0 0 24.965 12.482 12.482 0 0 0 0-24.965Zm0 27.114a14.626 14.626 0 1 1 .02-29.253 14.626 14.626 0 0 1-.02 29.253Zm0-30.634a16.002 16.002 0 1 0 0 32.005 16.002 16.002 0 0 0 0-32.005ZM57.893 5.305v-2.65h2.499a1.298 1.298 0 0 1 1.264 1.322 1.298 1.298 0 0 1-1.264 1.328h-2.5Zm3.262 1.094a2.505 2.505 0 0 0 1.843-2.431 2.606 2.606 0 0 0-2.606-2.602h-3.89V9.37h1.405V6.584h1.76l1.945 2.786h1.658l-2.115-2.971ZM64.53 1.376h1.405v6.715h4.036V9.37H64.53V1.376ZM74.343 8.086H72.64V2.655h1.701a2.664 2.664 0 0 1 2.65 2.718 2.66 2.66 0 0 1-2.65 2.713Zm0-6.71h-3.108V9.37h3.108a3.997 3.997 0 0 0 0-7.994ZM55.082 12h1.405v6.716h4.036v1.278h-5.44v-7.993ZM49.675 18.784a2.786 2.786 0 1 1 0-5.572 2.786 2.786 0 0 1 0 5.572Zm0-6.92a4.134 4.134 0 1 0 0 8.267 4.134 4.134 0 0 0 0-8.267ZM51.056 8.16a2.786 2.786 0 1 1 0-5.574 2.786 2.786 0 0 1 0 5.573Zm0-6.92a4.133 4.133 0 1 0 0 8.266 4.133 4.133 0 0 0 0-8.266ZM48.284 29.413a2.786 2.786 0 1 1 1.953-.816 2.791 2.791 0 0 1-1.972.816h.02Zm-.02-6.92a4.134 4.134 0 1 0 .001 8.268 4.134 4.134 0 0 0 0-8.267ZM43.48 29.55a4.132 4.132 0 1 1 0-5.836l-.972.973a2.786 2.786 0 1 0 0 3.943l.972.92ZM67.448 22.63h1.4v7.994h-1.196l-4.24-5.655v5.655h-1.4V22.63h1.322l4.114 5.495V22.63ZM81.393 22.63H82.8v6.715h4.035v1.279h-5.44V22.63ZM79.905 22.63H78.5v7.994h1.405V22.63ZM77.197 29.55a4.133 4.133 0 1 1 0-5.836l-.972.973a2.792 2.792 0 1 0 0 3.943l.972.92ZM65.118 18.716h-1.701v-5.432h1.701a2.718 2.718 0 0 1 0 5.432Zm0-6.716h-3.107v7.994h3.107a3.997 3.997 0 1 0 0-7.993ZM60.523 22.63h-1.4v4.765a2.023 2.023 0 0 1-4.04 0V22.63h-1.401v4.707a3.42 3.42 0 0 0 6.841 0V22.63ZM44.18 15.56v3.131a4.691 4.691 0 0 1-3.496 1.459 4.132 4.132 0 0 1-2.976-7.033 4.132 4.132 0 0 1 2.913-1.233 4.493 4.493 0 0 1 3.078 1.245l-.972.972a3.17 3.17 0 0 0-2.13-.817 2.815 2.815 0 0 0-2.854 2.752 2.87 2.87 0 0 0 2.917 2.82 3.151 3.151 0 0 0 2.174-.705v-1.366H40.79V15.56h3.39ZM39.226 9.37h-1.211l-2.592-7.994h1.44l1.755 5.674 1.828-5.674h1.187l1.823 5.674 1.755-5.674h1.444L44.06 9.37h-1.206L41.039 3.84 39.226 9.37Z"></path></g><clipPath id="a"><path fill="#FFFFFF" d="M0 0h86.834v32H0z"></path></clipPath></svg>